<?xml version="1.0" standalone="no"?>
<!DOCTYPE svg PUBLIC "-//W3C//DTD SVG 20010904//EN"
 "http://www.w3.org/TR/2001/REC-SVG-20010904/DTD/svg10.dtd">
<svg version="1.0" xmlns="http://www.w3.org/2000/svg"
 width="6705.000000pt" height="1538.000000pt" viewBox="0 0 6705.000000 1538.000000"
 preserveAspectRatio="xMidYMid meet">

<g transform="translate(0.000000,1538.000000) scale(0.100000,-0.100000)"
fill="#000000" stroke="none">
<path d="M6570 15309 c-85 -5 -456 -12 -825 -17 -733 -10 -708 -8 -835 -72
-148 -76 -297 -221 -363 -355 -14 -27 -58 -153 -97 -280 -101 -322 -157 -467
-275 -715 -234 -490 -594 -1397 -846 -2134 -71 -206 -89 -271 -89 -316 0 -123
50 -197 208 -307 53 -37 156 -124 228 -193 71 -69 212 -203 313 -299 100 -95
221 -221 269 -279 168 -204 260 -298 597 -612 187 -174 417 -388 511 -476 351
-328 607 -560 647 -587 118 -80 240 -68 330 32 52 58 85 127 465 986 321 726
341 775 352 855 21 167 81 300 163 362 99 76 186 100 447 122 102 9 264 23
360 32 119 12 275 17 485 17 296 0 412 -5 875 -39 364 -26 615 -28 1020 -9
293 14 463 16 775 11 220 -3 666 -9 990 -12 551 -5 607 -4 850 16 364 31 856
35 1705 16 498 -12 716 -21 770 -31 255 -48 545 45 721 231 78 83 101 127 178
345 121 341 200 545 380 975 253 608 513 1204 645 1482 100 209 137 333 156
527 25 256 -9 464 -87 525 -44 35 -164 88 -249 112 -75 20 -103 21 -529 23
-289 2 -554 9 -740 20 -334 20 -573 17 -1005 -15 -314 -23 -768 -26 -1130 -9
-296 14 -2968 14 -3100 0 -141 -16 -302 -13 -625 9 -561 39 -1139 50 -1625 30
-124 -5 -378 -12 -565 -16 -323 -6 -352 -5 -585 21 -276 30 -612 39 -870 24z"/>
<path d="M45080 15250 c-47 -5 -141 -19 -209 -31 -120 -21 -136 -21 -715 -15
-325 3 -706 9 -847 12 -253 6 -259 6 -404 -22 l-148 -28 -206 12 c-113 7 -312
19 -441 28 -310 21 -568 15 -661 -15 -67 -21 -134 -63 -175 -110 -64 -71 -297
-567 -489 -1041 -85 -210 -101 -244 -131 -280 -31 -37 -71 -40 -102 -7 -34 36
-273 552 -367 794 -76 194 -126 296 -196 400 -96 143 -216 240 -339 273 -31 9
-146 13 -360 14 -173 1 -479 6 -680 10 -250 6 -430 5 -572 -3 -133 -7 -816
-13 -1930 -16 -947 -3 -1759 -7 -1803 -11 -182 -12 -356 -54 -437 -105 -67
-43 -135 -120 -168 -192 -16 -34 -45 -120 -64 -192 -39 -147 -51 -175 -239
-585 -164 -358 -219 -488 -422 -1010 -167 -430 -270 -679 -460 -1115 -64 -148
-164 -391 -221 -540 -182 -471 -231 -588 -467 -1120 -280 -632 -327 -748 -458
-1125 -56 -162 -171 -459 -254 -660 -321 -767 -1135 -2657 -1294 -3003 -140
-304 -196 -446 -329 -838 -38 -112 -95 -262 -127 -334 -111 -252 -135 -341
-135 -490 0 -295 142 -491 382 -525 87 -13 567 2 868 27 230 18 312 14 452
-28 156 -46 291 -49 573 -14 241 30 338 30 435 -2 64 -21 154 -21 980 -4 417
9 1347 13 1965 9 129 -1 200 15 323 73 152 70 265 167 324 276 16 28 98 237
184 464 85 228 202 530 260 672 179 443 574 1376 634 1497 31 63 146 342 256
620 127 322 210 519 229 545 18 24 55 52 90 70 l59 30 340 -3 c370 -3 410 -8
457 -58 21 -23 24 -35 24 -102 l0 -77 -149 -340 c-430 -984 -630 -1473 -778
-1905 -71 -206 -110 -295 -179 -402 -111 -174 -188 -358 -254 -613 -45 -170
-51 -232 -31 -323 23 -110 77 -203 176 -304 136 -138 240 -172 401 -130 70 18
89 18 225 9 91 -7 375 -10 734 -7 977 7 1434 5 1905 -8 388 -11 484 -11 695 2
135 9 524 25 865 36 642 20 919 35 993 51 97 21 170 69 222 144 16 23 60 114
99 201 38 88 110 251 161 364 273 609 484 1120 648 1565 147 401 219 583 347
875 129 294 165 384 240 600 88 251 130 323 220 375 65 38 163 46 523 43 l324
-3 29 -33 c22 -24 29 -42 29 -73 0 -46 -56 -248 -125 -448 -54 -156 -59 -168
-138 -285 -68 -101 -66 -97 -234 -501 -427 -1022 -894 -2232 -915 -2370 -38
-243 103 -459 347 -531 88 -26 320 -23 730 10 373 31 397 31 830 -5 386 -32
736 -29 1530 14 303 16 451 14 865 -13 217 -14 453 -23 635 -23 345 -1 892 20
990 38 178 33 320 143 404 311 16 34 55 151 86 262 97 351 135 446 473 1197
245 545 336 755 427 990 237 610 650 1627 959 2362 102 243 325 778 497 1190
171 411 405 969 519 1238 114 270 281 668 370 885 89 217 226 546 305 730 179
418 205 483 300 755 136 390 189 514 295 700 72 126 220 475 239 565 15 69 14
161 -4 243 -40 188 -181 322 -400 377 -174 44 -712 65 -1394 55 -267 -4 -664
-9 -881 -10 -293 -1 -448 -6 -600 -20 -275 -25 -590 -25 -724 -1 -55 10 -120
24 -145 32 -40 12 -75 11 -286 -9 -330 -30 -977 -32 -1185 -3 -160 21 -250 16
-360 -20 -151 -51 -276 -154 -342 -281 -43 -83 -54 -116 -73 -220 -11 -67 -50
-165 -221 -552 l-207 -471 -32 0 -32 0 -331 663 c-347 697 -353 707 -448 763
-86 50 -413 103 -695 111 -208 6 -348 -4 -504 -36 -85 -18 -87 -18 -218 5
-291 52 -562 72 -737 54z"/>
<path d="M21005 15240 c-33 -4 -121 -15 -195 -25 -108 -14 -163 -16 -275 -10
-317 19 -1124 -1 -1230 -30 -176 -48 -316 -164 -403 -333 -22 -43 -79 -194
-127 -337 -109 -328 -174 -488 -280 -692 -107 -205 -172 -359 -275 -648 -111
-313 -156 -424 -240 -600 -93 -194 -124 -275 -204 -531 -79 -255 -116 -344
-194 -471 -85 -139 -134 -241 -217 -453 -40 -102 -105 -257 -143 -345 -38 -88
-118 -290 -177 -450 -176 -479 -355 -905 -499 -1192 -55 -111 -99 -222 -165
-415 -108 -319 -141 -394 -326 -749 -162 -309 -157 -298 -342 -799 -185 -502
-246 -652 -361 -895 -56 -118 -118 -267 -142 -340 -57 -178 -76 -225 -173
-431 -86 -183 -456 -1096 -566 -1396 -67 -184 -74 -234 -46 -338 53 -200 210
-351 395 -379 99 -15 1159 -16 1390 -1 291 18 576 9 780 -25 158 -26 174 -27
395 -20 156 4 337 1 560 -9 349 -17 1473 -42 1760 -40 118 1 219 9 330 24 202
29 381 29 790 0 381 -28 716 -28 1135 -1 520 33 604 34 1098 16 439 -17 477
-17 729 0 281 18 313 17 543 -18 183 -27 382 -26 745 2 534 42 1017 59 1995
70 l665 7 58 27 c120 55 243 204 347 419 76 156 102 234 141 416 38 180 48
206 244 617 178 373 293 646 882 2085 1527 3733 1489 3642 1663 4010 48 102
170 390 270 640 402 1001 846 2084 1065 2599 156 366 177 453 139 582 -30 104
-156 290 -231 342 -21 14 -60 36 -86 47 -47 21 -62 22 -630 25 -320 1 -764 9
-987 16 -270 8 -911 13 -1925 13 -1476 0 -1773 -4 -2395 -35 -420 -21 -667
-22 -955 -5 -588 34 -2090 56 -2480 37 -502 -26 -779 -25 -1163 3 -345 25
-567 31 -687 16z m3993 -3094 c48 -25 72 -63 72 -113 0 -54 -33 -141 -250
-648 -191 -448 -200 -470 -295 -730 -86 -236 -124 -328 -257 -615 -151 -326
-193 -424 -257 -609 -33 -94 -81 -219 -106 -278 -81 -187 -315 -696 -342 -743
-14 -25 -74 -178 -133 -340 -162 -443 -190 -515 -350 -890 -165 -385 -172
-403 -206 -548 -13 -57 -31 -118 -38 -136 -20 -47 -73 -104 -120 -128 -39 -21
-56 -22 -435 -25 l-394 -2 8 62 c9 87 66 303 110 422 21 55 97 235 170 400
165 371 317 744 384 936 54 156 121 309 336 764 108 227 147 322 181 436 23
80 67 208 97 285 52 131 81 195 257 574 109 235 161 365 240 595 43 125 106
281 157 389 95 203 120 262 204 495 164 453 161 450 478 452 97 1 210 5 251 9
101 11 202 5 238 -14z"/>
<path d="M56825 15239 c-291 -11 -377 -21 -456 -54 -120 -50 -230 -136 -322
-248 -58 -71 -88 -130 -117 -226 -12 -41 -53 -149 -92 -240 -108 -255 -145
-354 -192 -512 -61 -201 -159 -441 -606 -1469 -313 -721 -361 -839 -476 -1172
-79 -230 -137 -370 -194 -468 -68 -116 -100 -181 -100 -201 0 -25 -144 -463
-191 -581 -21 -53 -98 -222 -170 -375 -152 -323 -157 -335 -199 -479 -35 -122
-59 -178 -340 -819 -109 -247 -217 -497 -240 -555 -23 -58 -91 -206 -150 -330
-75 -156 -150 -337 -245 -590 -179 -477 -259 -676 -363 -895 -248 -528 -260
-556 -549 -1315 -102 -267 -203 -532 -225 -590 -69 -177 -64 -329 14 -489 44
-92 144 -189 239 -234 137 -65 162 -66 614 -36 174 12 445 8 920 -12 209 -8
292 -7 508 7 231 15 307 16 725 5 257 -7 839 -15 1295 -18 742 -5 827 -4 827
10 0 13 40 16 328 19 279 4 335 7 382 22 276 90 479 319 519 586 18 117 33
159 161 451 67 151 144 335 172 409 87 233 123 319 254 606 209 459 280 633
339 829 15 50 115 290 222 535 352 803 593 1373 889 2107 123 304 174 440 401
1053 127 346 198 494 254 534 13 9 40 16 61 16 68 0 51 36 530 -1105 115 -275
299 -720 408 -990 328 -813 760 -1848 978 -2345 279 -635 530 -1276 765 -1955
136 -389 160 -451 206 -521 80 -124 170 -181 331 -210 86 -16 207 -18 1256
-21 1288 -4 1241 -7 1379 61 131 65 279 228 305 338 18 71 7 197 -23 284 -14
40 -57 143 -95 230 -98 222 -348 827 -427 1035 -36 96 -97 256 -136 357 -99
262 -167 415 -263 592 -117 216 -151 301 -267 655 -114 349 -130 390 -236 629
-42 94 -124 297 -183 451 -152 396 -164 423 -342 790 -236 485 -250 520 -393
985 -58 189 -77 234 -151 373 -97 182 -104 198 -434 1017 -137 338 -372 912
-523 1275 -458 1100 -752 1819 -899 2195 -44 113 -96 235 -115 272 -47 91
-150 188 -230 218 -60 23 -278 64 -508 96 -191 27 -624 25 -1105 -5 -403 -25
-754 -26 -1400 -2 -791 29 -1828 38 -2325 20z"/>
<path d="M11532 9979 c-59 -30 -103 -85 -161 -203 -27 -56 -198 -438 -381
-849 -244 -552 -334 -765 -342 -810 -44 -270 -104 -379 -247 -451 -80 -41
-153 -53 -521 -86 -542 -49 -865 -50 -1460 -5 -480 36 -645 39 -1066 20 -346
-16 -479 -17 -999 -9 -965 14 -1486 11 -1710 -10 -270 -26 -1022 -31 -1785
-12 -454 12 -614 19 -675 31 -282 56 -650 -102 -788 -338 -14 -23 -48 -108
-76 -188 -139 -403 -250 -681 -598 -1499 -200 -469 -323 -749 -433 -980 -140
-294 -173 -429 -172 -706 0 -319 39 -385 272 -466 134 -46 172 -49 615 -49
231 0 488 -4 570 -9 83 -6 278 -13 435 -16 243 -5 333 -3 605 17 370 28 903
32 1440 11 193 -8 758 -12 1501 -12 1006 0 1222 3 1385 16 215 18 314 16 759
-17 418 -31 1147 -37 1735 -14 511 20 680 17 960 -16 229 -27 551 -31 1007
-11 163 6 517 12 786 12 269 0 511 4 538 9 133 25 276 109 394 230 98 101 142
178 191 336 139 447 191 586 337 890 117 245 195 429 366 857 197 496 465
1224 526 1428 38 129 18 242 -58 324 -15 15 -72 60 -127 99 -55 39 -159 127
-231 196 -72 69 -213 205 -314 301 -101 96 -226 227 -279 290 -155 187 -243
280 -434 457 -100 92 -290 269 -422 393 -250 235 -703 654 -814 753 -88 78
-149 107 -225 107 -42 0 -74 -7 -104 -21z"/>
<path d="M60665 7050 c-61 -10 -102 -36 -129 -83 -13 -23 -58 -141 -99 -262
-91 -267 -139 -391 -437 -1115 -456 -1110 -497 -1206 -726 -1690 -49 -103 -69
-159 -72 -196 -8 -100 50 -209 134 -249 54 -25 264 -63 419 -74 79 -6 441 -11
825 -11 450 0 824 -5 1092 -16 379 -15 411 -15 465 1 55 16 113 51 141 85 30
37 64 117 69 164 11 110 -80 345 -442 1136 -89 195 -294 654 -455 1019 -403
916 -512 1155 -554 1206 -56 68 -141 99 -231 85z"/>
<path d="M60540 2949 c-152 -13 -261 -83 -321 -205 -41 -83 -51 -215 -25 -310
57 -198 249 -299 507 -264 186 25 300 122 339 289 20 85 8 196 -29 274 -77
162 -238 235 -471 216z"/>
<path d="M51077 1408 l2 -1373 411 -3 410 -2 0 1375 0 1375 -412 0 -413 0 2
-1372z"/>
<path d="M52193 1405 l0 -1375 408 2 409 3 3 1373 2 1372 -411 0 -411 0 0
-1375z"/>
<path d="M58686 2308 c-19 -104 -136 -257 -233 -307 -51 -26 -145 -51 -190
-51 l-33 0 0 -311 0 -310 148 7 c81 4 158 7 172 8 l25 1 0 -370 c0 -305 3
-383 17 -445 61 -281 200 -434 453 -501 144 -38 533 -37 752 2 l62 11 -1 241
c-1 133 2 256 6 272 l6 30 -137 0 c-113 0 -148 4 -191 20 -100 37 -155 104
-188 228 -10 37 -14 118 -14 289 l0 237 78 -4 c179 -12 436 -25 472 -25 l40 0
0 310 0 310 -337 2 -337 3 44 29 c82 54 340 320 340 350 0 3 -213 6 -474 6
l-474 0 -6 -32z"/>
<path d="M46920 1984 c-284 -34 -478 -103 -628 -225 -138 -112 -248 -289 -299
-484 -23 -88 -26 -120 -27 -270 -1 -225 23 -335 110 -506 132 -257 363 -412
709 -475 137 -25 506 -26 645 -1 364 63 613 222 755 479 27 51 33 69 23 73 -7
2 -54 14 -105 25 -144 31 -306 77 -452 126 l-133 46 -42 -40 c-102 -99 -212
-137 -371 -130 -127 7 -196 32 -268 98 -164 150 -165 435 -3 589 70 66 143 92
271 99 160 7 262 -27 367 -125 l47 -44 143 45 c188 59 332 101 443 126 50 12
96 23 103 25 10 4 4 23 -23 73 -139 252 -393 416 -740 477 -86 16 -446 28
-525 19z"/>
<path d="M49415 1984 c-201 -24 -341 -60 -470 -124 -317 -155 -495 -464 -495
-860 0 -192 39 -358 121 -509 188 -349 551 -507 1119 -488 96 3 216 13 265 21
471 79 760 333 852 750 19 89 22 337 4 421 -66 314 -237 531 -524 665 -142 66
-266 99 -452 120 -83 9 -351 11 -420 4z m356 -604 c126 -24 226 -99 278 -209
24 -51 26 -67 26 -176 0 -109 -2 -125 -26 -176 -75 -159 -214 -226 -449 -217
-175 7 -261 45 -335 146 -52 72 -70 140 -69 257 1 123 24 191 90 264 48 53
108 88 189 107 62 15 224 17 296 4z"/>
<path d="M54240 1983 c-147 -14 -303 -48 -409 -91 -279 -111 -478 -347 -541
-640 -55 -255 -26 -515 80 -727 186 -373 553 -541 1140 -522 344 12 568 70
775 202 83 53 223 197 262 271 l33 61 -108 38 c-133 47 -406 156 -468 188
l-47 24 -56 -56 c-66 -66 -172 -122 -276 -147 -100 -23 -288 -15 -367 15 -104
40 -205 157 -236 273 l-10 38 791 2 792 3 3 120 c11 459 -279 797 -782 915
-146 34 -409 49 -576 33z m412 -552 c71 -27 154 -101 192 -170 l27 -51 -415 0
c-229 0 -416 4 -416 8 0 20 62 102 101 134 97 79 203 110 359 104 67 -2 112
-10 152 -25z"/>
<path d="M56725 1978 c-577 -64 -906 -421 -907 -983 -1 -294 87 -529 265 -706
193 -194 484 -289 879 -289 533 1 889 167 1078 503 18 32 30 61 26 64 -3 4
-91 28 -194 54 -104 26 -257 70 -341 98 l-152 51 -60 -50 c-103 -86 -196 -120
-326 -120 -140 0 -238 34 -311 107 -88 88 -129 219 -111 352 13 91 49 163 113
226 73 71 139 96 269 103 160 8 249 -21 366 -118 l61 -51 138 45 c160 52 355
108 462 131 41 10 79 21 84 25 5 5 -6 34 -24 67 -137 242 -372 403 -682 467
-168 34 -448 45 -633 24z"/>
<path d="M64540 1979 c-266 -28 -489 -121 -643 -268 -213 -204 -310 -488 -278
-820 43 -459 318 -761 776 -855 197 -41 519 -46 740 -11 367 57 650 232 778
481 l16 32 -107 37 c-133 47 -406 156 -468 188 l-47 24 -58 -57 c-106 -105
-254 -160 -433 -160 -109 0 -199 19 -262 55 -78 46 -155 150 -182 247 l-10 38
791 2 792 3 -1 150 c0 123 -4 164 -23 229 -91 326 -350 556 -731 649 -182 45
-429 58 -650 36z m462 -549 c71 -26 154 -100 192 -169 l27 -51 -415 0 c-229 0
-416 4 -416 8 0 18 59 99 95 131 50 44 145 88 215 100 87 16 236 6 302 -19z"/>
<path d="M60207 1953 c-3 -5 0 -89 5 -188 12 -232 15 -1110 5 -1462 l-8 -273
417 0 417 0 -6 143 c-22 471 -18 1260 7 1757 l1 25 -417 3 c-229 1 -419 -1
-421 -5z"/>
<path d="M61230 1954 c0 -3 56 -157 124 -343 171 -465 244 -671 409 -1156
l144 -420 549 0 549 0 22 65 c281 821 407 1178 577 1642 42 113 76 209 76 212
0 3 -183 5 -407 4 l-407 -3 -46 -165 c-26 -91 -115 -414 -200 -717 -85 -304
-156 -550 -159 -547 -3 3 -96 326 -207 717 l-200 712 -412 3 c-227 1 -412 -1
-412 -4z"/>
<path d="M66439 737 c-66 -19 -131 -60 -179 -114 -168 -189 -104 -484 127
-590 105 -48 246 -40 342 21 54 35 120 111 149 174 23 49 27 70 27 147 0 77
-4 98 -27 147 -61 130 -183 216 -319 224 -44 2 -93 -1 -120 -9z"/>
</g>
</svg>
